<svg width="24" height="24" viewBox="0 0 24 24" fill="none" xmlns="http://www.w3.org/2000/svg">
<g filter="url(#filter0_d_195_783)">
<path d="M22.5 12C22.4995 12.2579 22.4328 12.5114 22.3064 12.7362C22.1801 12.9611 21.9982 13.1498 21.7781 13.2843L8.27813 21.525C8.05326 21.6675 7.79356 21.7455 7.52738 21.7504C7.26121 21.7554 6.99878 21.6871 6.76876 21.5531C6.53533 21.425 6.34074 21.2364 6.20545 21.0071C6.07017 20.7778 5.9992 20.5162 6.00001 20.25V3.74997C5.9992 3.48372 6.07017 3.22217 6.20545 2.99285C6.34074 2.76353 6.53533 2.57491 6.76876 2.44684C6.99878 2.31282 7.26121 2.24456 7.52738 2.24952C7.79356 2.25448 8.05326 2.33247 8.27813 2.47497L21.7781 10.7156C21.9982 10.8502 22.1801 11.0389 22.3064 11.2637C22.4328 11.4886 22.4995 11.742 22.5 12V12Z" fill="white"/>
</g>
<defs>
<filter id="filter0_d_195_783" x="-4" y="-7.75073" width="36.5" height="39.5015" filterUnits="userSpaceOnUse" color-interpolation-filters="sRGB">
<feFlood flood-opacity="0" result="BackgroundImageFix"/>
<feColorMatrix in="SourceAlpha" type="matrix" values="0 0 0 0 0 0 0 0 0 0 0 0 0 0 0 0 0 0 127 0" result="hardAlpha"/>
<feOffset/>
<feGaussianBlur stdDeviation="5"/>
<feColorMatrix type="matrix" values="0 0 0 0 0.2 0 0 0 0 0.2 0 0 0 0 0.2 0 0 0 0.05 0"/>
<feBlend mode="normal" in2="BackgroundImageFix" result="effect1_dropShadow_195_783"/>
<feBlend mode="normal" in="SourceGraphic" in2="effect1_dropShadow_195_783" result="shape"/>
</filter>
</defs>
</svg>
